<svg width="284" height="41" viewBox="0 0 284 41" fill="none" xmlns="http://www.w3.org/2000/svg">
<path d="M169.693 7.12954C171.263 2.84388 175.299 0 179.812 0H273.197C280.717 0 285.932 7.59522 283.316 14.7371L276.307 33.8705C274.737 38.1561 270.701 41 266.188 41H172.803C165.283 41 160.068 33.4048 162.684 26.2629L169.693 7.12954Z" fill="#5D43E1"/>
<path d="M24.9396 40V24.2714L39.7273 1H28.2844L19.893 15.3838L11.3842 1H0L14.8464 24.2714V40H24.9396Z" fill="white"/>
<path d="M79.5525 40L64.7648 1H52.0896L37.3606 40H48.8034L50.7399 34.3868H66.1731L68.1096 40H79.5525ZM63.4151 25.6162H53.4393L58.4272 10.94L63.4151 25.6162Z" fill="white"/>
<path d="M124.836 40L110.048 1H97.3731L82.644 40H94.0869L96.0234 34.3868H111.457L113.393 40H124.836ZM108.699 25.6162H98.7227L103.711 10.94L108.699 25.6162Z" fill="white"/>
<path d="M147.212 40L162 1H150.557L140.875 29.1244L131.251 1H119.808L134.537 40H147.212Z" fill="white"/>
<path d="M191.396 27C195.264 27 197.403 25.0652 197.403 22.1522C197.403 16.7609 189.257 18.1087 189.257 16.2609C189.257 15.6522 189.732 15.2174 190.812 15.2174C192.239 15.2174 193.816 15.7174 195.026 16.7174L197.057 14.0435C195.523 12.7174 193.513 12.0217 191.201 12.0217C187.506 12.0217 185.454 14.1957 185.454 16.6304C185.454 22.2174 193.621 20.6304 193.621 22.6087C193.621 23.3043 192.844 23.8043 191.569 23.8043C189.602 23.8043 188.003 22.9348 186.966 21.8913L185 24.6957C186.448 26.087 188.479 27 191.396 27Z" fill="white"/>
<path d="M204.208 26.7391V21.8696H207.708C210.949 21.8696 212.721 19.6739 212.721 17.0652C212.721 14.4348 210.949 12.2391 207.708 12.2391H200.491V26.7391H204.208ZM207.211 18.6087H204.208V15.5H207.211C208.205 15.5 208.94 16.0652 208.94 17.0652C208.94 18.0435 208.205 18.6087 207.211 18.6087Z" fill="white"/>
<path d="M222.706 27C227.114 27 230.398 23.913 230.398 19.5C230.398 15.087 227.114 12 222.706 12C218.298 12 214.992 15.087 214.992 19.5C214.992 23.913 218.298 27 222.706 27ZM222.706 23.6957C220.307 23.6957 218.773 21.8478 218.773 19.5C218.773 17.1304 220.307 15.3043 222.706 15.3043C225.082 15.3043 226.617 17.1304 226.617 19.5C226.617 21.8478 225.082 23.6957 222.706 23.6957Z" fill="white"/>
<path d="M245.915 26.7391L242.976 21.413C244.316 20.9348 245.85 19.587 245.85 17.0652C245.85 14.3696 244.035 12.2391 240.837 12.2391H233.62V26.7391H237.337V21.8696H239.238L241.658 26.7391H245.915ZM240.275 18.6087H237.337V15.5H240.275C241.248 15.5 242.069 16.0652 242.069 17.0435C242.069 18.0652 241.248 18.6087 240.275 18.6087Z" fill="white"/>
<path d="M255.981 26.7391V15.5H260V12.2391H248.224V15.5H252.265V26.7391H255.981Z" fill="white"/>
</svg>
